<svg width="71" height="50" viewBox="0 0 71 50" fill="none" xmlns="http://www.w3.org/2000/svg">
<path d="M8.36783 2.93343V1.06841H55.1849V7.79562H56.2539V0.534203C56.2539 0.238048 56.0139 0 55.7194 0H7.83334C7.53891 0 7.29886 0.238048 7.29886 0.534203V2.93343H8.36783Z" fill="#333C4B"/>
<path d="M56.2539 49.4672V41.8009H55.1849V48.933H8.36783V46.6631H7.29886V49.4672C7.29886 49.7633 7.53891 50.0014 7.83334 50.0014H55.7194C56.0139 50.0014 56.2539 49.7633 56.2539 49.4672Z" fill="#333C4B"/>
<path d="M56.7096 26.5358C56.7096 25.7111 56.9627 25.0344 57.4447 24.5808C59.1926 22.9314 63.2659 24.6052 66.921 28.4702C69.4359 31.1356 71 34.0934 71 36.1927C71 37.0174 70.7449 37.6941 70.2648 38.1477C69.3834 38.9799 67.8756 38.9837 66.019 38.1608C64.3086 37.4017 62.452 36.0146 60.7904 34.2565C58.2736 31.5929 56.7096 28.6333 56.7096 26.5339V26.5358ZM69.931 36.1927C69.931 34.3839 68.4439 31.6398 66.1409 29.2031C62.7952 25.6642 59.2582 24.3353 58.1761 25.3568C57.9117 25.6061 57.7767 26.0035 57.7767 26.5339C57.7767 28.3427 59.2638 31.0869 61.5649 33.5217C63.1309 35.1805 64.8656 36.4795 66.4503 37.1824C67.8662 37.8103 68.9877 37.8797 69.5278 37.3698C69.7941 37.1187 69.9273 36.7232 69.9273 36.1908L69.931 36.1927Z" fill="#333C4B"/>
<path d="M64.0067 25.0007L51.5467 6.10117H0.930023V43.9002H51.5467L64.0067 25.0007ZM55.2412 25.0007C55.2412 23.5162 56.4452 22.3128 57.9305 22.3128C59.4158 22.3128 60.6198 23.5162 60.6198 25.0007C60.6198 26.4852 59.4158 27.6886 57.9305 27.6886C56.4452 27.6886 55.2412 26.4852 55.2412 25.0007Z" fill="#FF5286"/>
<path opacity="0.3" d="M54.099 40.0277L4.89454 9.97366L1.99894 41.8009L54.099 40.0277Z" fill="#333C4B"/>
<path d="M64.0067 25.0007L54.1009 9.97366H4.89459V40.0277H54.0991L64.0048 25.0007H64.0067ZM55.2412 25.0007C55.2412 23.5162 56.4452 22.3128 57.9305 22.3128C59.4158 22.3128 60.6198 23.5162 60.6198 25.0007C60.6198 26.4852 59.4158 27.6886 57.9305 27.6886C56.4452 27.6886 55.2412 26.4852 55.2412 25.0007Z" fill="#0D93C2"/>
<path d="M70.2648 38.1477C70.7468 37.6941 71 37.0175 71 36.1927C71 34.0934 69.4359 31.1356 66.9192 28.4702C63.264 24.6033 59.1907 22.9314 57.4428 24.5808C57.0415 24.9595 56.809 25.4993 56.7396 26.1441C57.0921 26.1028 57.4485 26.1366 57.7973 26.234C57.8404 25.8535 57.9642 25.5555 58.1761 25.3568C59.2582 24.3353 62.7952 25.6642 66.1409 29.2031C68.4439 31.6398 69.931 34.3839 69.931 36.1927C69.931 36.7232 69.796 37.1205 69.5316 37.3717C68.9915 37.8815 67.87 37.8122 66.4541 37.1843C64.8694 36.4814 63.1346 35.1805 61.5687 33.5236C61.2968 33.2368 61.038 32.9444 60.7904 32.6501C60.766 32.697 60.751 32.7438 60.7229 32.7888C60.5672 33.055 60.3534 33.2912 60.104 33.4898C60.3253 33.7466 60.5522 34.0034 60.7923 34.2565C62.4539 36.0146 64.3105 37.4017 66.0209 38.1608C67.8775 38.9856 69.3853 38.9799 70.2667 38.1477H70.2648Z" fill="#333C4B"/>
<path d="M5.73476 19.9211C5.73476 19.1189 5.84165 18.3972 6.05732 17.758C6.27112 17.1189 6.58993 16.5772 7.01377 16.1311C7.43573 15.685 7.95897 15.3438 8.58534 15.1058C9.20985 14.8677 9.93375 14.7496 10.7552 14.7496C11.5766 14.7496 12.3005 14.8677 12.925 15.1058C13.5495 15.3438 14.0727 15.685 14.4928 16.1311C14.9129 16.5772 15.2298 17.1189 15.4455 17.758C15.6593 18.3972 15.7681 19.1189 15.7681 19.9211C15.7681 20.7233 15.6593 21.4375 15.4418 22.0766C15.2242 22.7158 14.9054 23.2594 14.4816 23.7074C14.0596 24.1554 13.5364 24.4984 12.9137 24.7402C12.2911 24.9801 11.571 25.1001 10.7533 25.1001C9.93562 25.1001 9.20985 24.9801 8.58722 24.7402C7.96459 24.5002 7.43948 24.1554 7.01565 23.7074C6.58994 23.2594 6.27112 22.7158 6.05732 22.0766C5.84165 21.4375 5.73476 20.7196 5.73476 19.9211ZM8.48595 19.9211C8.48595 20.3372 8.52908 20.7365 8.61535 21.1207C8.70162 21.505 8.83665 21.8461 9.01856 22.1423C9.20047 22.4384 9.43489 22.6746 9.72183 22.8526C10.0088 23.0307 10.3538 23.1188 10.7552 23.1188C11.1565 23.1188 11.5016 23.0307 11.7885 22.8526C12.0754 22.6746 12.3099 22.4384 12.4918 22.1423C12.6737 21.8461 12.8068 21.505 12.8912 21.1207C12.9756 20.7365 13.0169 20.3353 13.0169 19.9211C13.0169 19.5069 12.9756 19.0832 12.8912 18.6971C12.8068 18.3091 12.6737 17.9698 12.4918 17.6793C12.3099 17.3869 12.0754 17.1564 11.7885 16.9858C11.5016 16.8152 11.1565 16.7309 10.7552 16.7309C10.3538 16.7309 10.0088 16.8152 9.72183 16.9858C9.43489 17.1564 9.20047 17.3869 9.01856 17.6793C8.83665 17.9717 8.70162 18.311 8.61535 18.6971C8.52908 19.0851 8.48595 19.4919 8.48595 19.9211Z" fill="white"/>
<path d="M25.085 24.9239H22.7333V23.5462H22.7051C22.5795 23.8217 22.4219 24.0579 22.2325 24.2528C22.0431 24.4496 21.8312 24.609 21.5949 24.7364C21.3586 24.8639 21.1054 24.9539 20.8316 25.012C20.5578 25.0701 20.2746 25.1001 19.9802 25.1001C19.472 25.1001 19.0369 25.0176 18.6749 24.8508C18.313 24.6858 18.0185 24.4646 17.7897 24.1891C17.5609 23.9136 17.394 23.5968 17.289 23.2369C17.184 22.877 17.1315 22.504 17.1315 22.1179V17.4581H19.7083V21.0682C19.7083 21.4225 19.7383 21.7186 19.7964 21.9567C19.8545 22.1947 19.9371 22.3878 20.0421 22.534C20.1471 22.6802 20.2728 22.7852 20.4172 22.8489C20.5616 22.9126 20.7228 22.9426 20.901 22.9426C21.4374 22.9426 21.8406 22.7571 22.1088 22.3859C22.3769 22.0148 22.512 21.4244 22.512 20.6128V17.4563H25.0887V24.922L25.085 24.9239Z" fill="white"/>
<path d="M26.0302 17.4581H27.5567V15.7787L30.0904 14.9952V17.4581H31.8964V19.2632H30.0904V22.0129C30.0904 22.4703 30.1579 22.8133 30.2929 23.042C30.4336 23.265 30.7111 23.3775 31.1256 23.3775C31.2569 23.3775 31.3863 23.3662 31.5138 23.3419C31.6413 23.3194 31.7745 23.295 31.9095 23.2725L31.9939 24.952C31.7463 24.9801 31.4969 25.012 31.2437 25.0457C30.9906 25.0794 30.7018 25.0982 30.3754 25.0982C29.7959 25.0982 29.3215 25.0344 28.9501 24.9089C28.5788 24.7833 28.2863 24.6015 28.0725 24.3634C27.8568 24.1254 27.7086 23.833 27.628 23.4843C27.5474 23.1357 27.5061 22.7421 27.5061 22.2978V19.2613H26.0283V17.4563L26.0302 17.4581Z" fill="white"/>
<path d="M33.361 14.1761H35.9377V24.9238H33.361V14.1761Z" fill="white"/>
<path d="M40.0956 21.9436C40.1743 22.4609 40.4031 22.8302 40.7782 23.0495C41.1533 23.2688 41.6596 23.3775 42.2935 23.3775C42.6442 23.3775 43.0118 23.3344 43.3962 23.2481C43.7807 23.1619 44.1727 23.0138 44.5684 22.8039V24.624C44.1426 24.787 43.7038 24.907 43.2481 24.9838C42.7924 25.0607 42.3198 25.1 41.8303 25.1C41.2133 25.1 40.6413 25.012 40.1106 24.8339C39.5817 24.6558 39.1204 24.4009 38.7322 24.0635C38.3421 23.728 38.0364 23.3175 37.8151 22.832C37.5938 22.3466 37.4832 21.7974 37.4832 21.1807C37.4832 20.564 37.5826 20.0148 37.7832 19.5331C37.9839 19.0495 38.2614 18.6428 38.6159 18.3091C38.9703 17.9755 39.3923 17.7205 39.8836 17.5462C40.3731 17.3719 40.9076 17.2838 41.4871 17.2838C42.1772 17.2838 42.7624 17.3982 43.2406 17.6268C43.7188 17.8555 44.107 18.1629 44.4071 18.5472C44.7053 18.9314 44.9228 19.3775 45.0578 19.8836C45.1929 20.3897 45.2604 20.9183 45.2604 21.4693V21.9454H40.0937L40.0956 21.9436ZM42.9386 20.4797C42.9386 20.0504 42.8299 19.6849 42.6105 19.3813C42.391 19.0739 42.0216 18.9202 41.504 18.9202C41.0333 18.9202 40.6826 19.0739 40.4538 19.3813C40.225 19.6793 40.0974 20.0467 40.0693 20.4797H42.9405H42.9386Z" fill="white"/>
<path d="M45.9411 17.4581H47.4676V15.7787L50.0013 14.9952V17.4581H51.8073V19.2632H50.0013V22.0129C50.0013 22.4703 50.0688 22.8133 50.2038 23.042C50.3445 23.265 50.622 23.3775 51.0365 23.3775C51.1678 23.3775 51.2972 23.3662 51.4247 23.3419C51.5522 23.3194 51.6854 23.295 51.8204 23.2725L51.9048 24.952C51.6572 24.9801 51.4078 25.012 51.1565 25.0457C50.9052 25.0794 50.6145 25.0982 50.2882 25.0982C49.7087 25.0982 49.2342 25.0344 48.8629 24.9089C48.4916 24.7833 48.199 24.6015 47.9834 24.3634C47.7677 24.1254 47.6195 23.833 47.5389 23.4843C47.4564 23.1376 47.417 22.7421 47.417 22.2978V19.2613H45.9392V17.4563L45.9411 17.4581Z" fill="white"/>
<path d="M28.4513 27.3699H31.6132L34.7544 33.681H34.7807L34.7413 27.3699H37.0049V36.6651H33.9293L30.6773 30.3146H30.6511L30.7298 36.6651H28.4531V27.3699H28.4513Z" fill="white"/>
<path d="M40.7444 33.8947C40.8175 34.3764 41.0294 34.7176 41.3783 34.9219C41.7271 35.1262 42.1959 35.2274 42.7867 35.2274C43.1111 35.2274 43.4524 35.188 43.8106 35.1074C44.1688 35.0268 44.5308 34.89 44.9002 34.6951V36.3858C44.5064 36.5376 44.0976 36.6482 43.6737 36.7213C43.2518 36.7925 42.8111 36.8281 42.3572 36.8281C41.7852 36.8281 41.2526 36.7457 40.7613 36.5807C40.2699 36.4158 39.8423 36.1777 39.4804 35.8666C39.1184 35.5536 38.8352 35.173 38.6289 34.7232C38.4227 34.2733 38.3195 33.7616 38.3195 33.1899C38.3195 32.6182 38.4133 32.1084 38.5989 31.6586C38.7846 31.2106 39.0434 30.8301 39.3735 30.5208C39.7035 30.2115 40.0955 29.9753 40.5512 29.8123C41.0069 29.6492 41.502 29.5686 42.0403 29.5686C42.6817 29.5686 43.2255 29.6754 43.67 29.8873C44.1144 30.0991 44.4745 30.384 44.7521 30.742C45.0296 31.1 45.2303 31.5142 45.3578 31.9828C45.4835 32.4533 45.5472 32.9444 45.5472 33.4561V33.8985H40.7481L40.7444 33.8947ZM43.3849 32.5376C43.3849 32.1384 43.2837 31.7991 43.0792 31.518C42.8748 31.2312 42.5335 31.0887 42.0515 31.0887C41.6127 31.0887 41.2882 31.2312 41.0763 31.518C40.8644 31.7954 40.7444 32.1347 40.7181 32.5376H43.3849Z" fill="white"/>
<path d="M46.1755 29.7279H47.5933V28.1684L49.9469 27.4412V29.7298H51.6254V31.4074H49.9469V33.9622C49.9469 34.3877 50.0088 34.7063 50.1363 34.9181C50.2657 35.1262 50.5245 35.2312 50.9109 35.2312C51.0328 35.2312 51.1528 35.2199 51.2709 35.1993C51.391 35.1768 51.5129 35.1562 51.6385 35.1337L51.7173 36.6932C51.4866 36.7194 51.2559 36.7475 51.0215 36.7813C50.7871 36.8131 50.5189 36.83 50.2151 36.83C49.6769 36.83 49.2362 36.7719 48.8911 36.6538C48.546 36.5357 48.2741 36.367 48.0753 36.1459C47.8765 35.9247 47.7377 35.6529 47.6627 35.3305C47.5877 35.0081 47.5483 34.6407 47.5483 34.2284V31.4074H46.1755V29.7298V29.7279Z" fill="white"/>
</svg>
