<svg width="260" height="255" viewBox="0 0 260 255" fill="none" xmlns="http://www.w3.org/2000/svg">
<g clip-path="url(#clip0_926_2009)">
<path d="M129.51 249.02C198.275 249.02 254.02 193.275 254.02 124.51C254.02 55.745 198.275 0 129.51 0C60.745 0 5 55.745 5 124.51C5 193.275 60.745 249.02 129.51 249.02Z" fill="#A673EF"/>
<path d="M129.51 251.52C113.91 251.52 98.67 248.72 84.2 243.19C83.48 242.92 82.93 242.33 82.7 241.59C82.47 240.86 82.6 240.06 83.04 239.43L83.45 238.84C84.43 237.37 85.22 236.1 85.92 234.89L86.05 234.65C86.13 234.51 86.2 234.37 86.28 234.24C86.34 234.15 86.4 234.06 86.47 233.97C87.25 232.99 87.95 232.12 88.61 231.21C90.12 229.23 91.32 227.24 92.23 225.26C92.23 225.26 92.28 225.12 92.29 225.1C92.29 225.08 92.29 225.06 92.29 225.03C92.37 223.51 92.58 222.02 92.76 220.71C93.17 217.31 93.59 214.26 94.04 211.42C94.56 208.35 95.1 205.21 95.75 202.13C95.9 201.38 96.06 200.6 96.25 199.78L96.29 199.56C96.29 199.4 96.31 199.18 96.34 199.04C96.4 198.76 96.44 198.56 96.48 198.39C96.84 196.95 97.1 193.87 97.17 190.19C96.97 190.09 96.76 190.04 96.56 190.04C96.52 190.04 96.48 190.04 96.44 190.04C96.09 190.08 95.68 190.11 95.21 190.11C94.85 190.11 94.49 190.1 94.13 190.08C93.84 190.07 93.56 190.06 93.28 190.06C93.23 190.06 93.19 190.06 93.14 190.06C92.82 190.04 92.48 190.02 92.15 190.02C91.97 190.02 91.8 190.02 91.62 190.05C91.52 190.06 91.43 190.07 91.33 190.07C91.1 190.07 90.87 190.04 90.65 189.98C90.24 189.86 89.88 189.71 89.59 189.59C89.57 189.59 89.52 189.56 89.5 189.55C87.83 188.78 86.36 187.37 85.03 185.24C84.43 184.25 83.95 183.29 83.48 182.37L83.1 181.62C82.33 180.04 81.55 178.52 80.76 177.05C79.17 173.94 77.6 170.92 76.03 167.89C74.49 164.82 72.92 161.68 71.54 158.44C70.99 157.23 70.44 155.94 69.89 154.67L69.37 153.47C69.33 153.38 69.3 153.28 69.27 153.18L68.99 152.5L68.74 151.92C68.67 151.81 68.62 151.69 68.57 151.57C68.37 151.07 68.15 150.56 67.92 150.05L67.62 149.35C66.29 146.25 64.97 143.43 63.61 140.74C63.15 139.79 62.66 138.89 62.18 138L61.61 136.93L60.93 135.69L60.76 136.98C60.55 138.32 60.3 139.5 59.99 140.67C59.58 142.05 59.18 143.2 58.76 144.26C58.63 144.65 58.46 145.07 58.29 145.46L58.04 146.02L58.65 146.2C59.04 146.32 59.4 146.42 59.76 146.52C60.13 146.62 60.5 146.73 60.88 146.84C61.77 147.1 62.61 147.34 63.48 147.55C63.64 147.59 63.78 147.64 63.93 147.69C63.93 147.69 63.91 147.69 63.89 147.69C64.58 147.83 65.18 148.26 65.54 148.87L65.75 149.08C66.38 149.67 66.87 150.41 67.23 150.99C67.49 151.42 67.69 151.82 67.89 152.22C67.92 152.29 67.99 152.44 68.02 152.5L68.15 152.83L68.28 153.12C68.57 153.81 68.72 154.37 68.83 154.85C69.23 156.46 69.43 157.87 69.43 159.16C69.43 159.96 69.34 160.67 69.26 161.3C69.23 161.57 69.15 161.83 69.03 162.07C69.03 162.1 69.03 162.13 69.02 162.15C68.9 162.86 68.74 163.62 68.58 164.33C68 166.7 67.3 168.93 66.69 170.84C65.64 174.1 64.63 177.37 63.62 180.64C62.61 183.9 61.6 187.16 60.56 190.41C59.52 193.73 58.41 197 57.27 200.12C57.02 200.82 56.75 201.55 56.48 202.27C56.09 203.33 55.7 204.38 55.34 205.44L55.27 205.63C54.11 209.03 52.92 212.55 51.17 215.82C50.57 216.95 49.72 218.38 48.54 219.46C48.06 219.9 47.46 220.11 46.85 220.11C46.24 220.11 45.66 219.9 45.19 219.48C18.06 195.37 2.5 160.76 2.5 124.51C2.5 114.54 3.67 104.59 5.97 94.94C6.14 94.21 6.64 93.59 7.32 93.26C7.66 93.1 8.03 93.02 8.4 93.02C8.77 93.02 9.14 93.1 9.48 93.26L11 93.98C12.14 94.52 13.27 95.06 14.4 95.61L15.18 96C16.04 96.44 16.85 96.85 17.66 97.19C18.44 97.51 19.23 97.83 20.02 98.12C20.58 98.32 21.15 98.56 21.72 98.81C22.37 99.09 22.86 99.63 23.09 100.28C23.1 100.31 24.24 103.08 24.24 103.08C24.49 103.11 24.73 103.17 24.96 103.28L26.57 103.99C27.32 104.32 27.86 104.99 28.01 105.8C28.04 105.97 28.06 106.14 28.08 106.31C28.18 106.83 28.27 107.31 28.37 107.79C28.48 108.36 28.59 108.93 28.71 109.49C28.73 109.58 28.74 109.68 28.75 109.78C28.77 109.86 28.79 109.95 28.8 110.03L28.85 110.35L29.12 110.43C29.34 110.47 29.55 110.54 29.79 110.6L29.94 110.64C31.5 111.1 32.77 111.53 33.94 111.99C35.67 112.68 37.37 113.53 39.17 114.6L39.43 114.75L39.68 114.6C39.74 114.57 39.79 114.53 39.85 114.5C40.6 114.08 41.34 113.74 42.08 113.48C42.12 113.46 42.17 113.45 42.21 113.44C43.34 113.11 44.35 112.95 45.29 112.95C45.5 112.95 45.71 112.95 45.91 112.97C46.82 113.01 49.63 113.55 50.72 115.45L50.94 115.85L51.26 115.8C51.74 115.71 52.21 115.67 52.66 115.63C53.33 115.52 54 115.45 54.67 115.37C54.7 115.37 54.78 115.36 54.81 115.36C55.1 115.34 55.39 115.33 55.69 115.33C56.78 115.33 57.85 115.46 58.56 115.57C59.96 115.79 61.15 116.17 62.13 116.71C62.17 116.73 62.4 116.87 62.4 116.87C62.72 117.07 63.16 117.34 63.56 117.73C63.57 117.74 63.59 117.76 63.6 117.77C63.68 117.85 63.76 117.94 63.83 118.03L63.91 118.14L64.09 118.24C65.09 118.71 66.06 119.48 66.99 120.53C68.32 122.04 69.52 123.87 70.75 126.29C71.26 127.28 71.78 128.38 72.28 129.54C72.31 129.62 72.35 129.69 72.38 129.76C72.49 129.99 72.6 130.22 72.69 130.47C72.75 130.62 72.79 130.77 72.81 130.93C72.92 131.07 73.02 131.22 73.11 131.39C73.2 131.58 73.3 131.8 73.39 132.03C74.88 135.15 76.71 138.08 78.14 140.28C79.84 142.9 81.65 145.52 83.67 148.28C84.56 149.53 85.43 150.77 86.29 152.01C86.27 150.77 86.36 149.49 86.56 148.22C87.15 144.76 88.16 142.28 89.65 140.56C90.39 139.73 91.18 139.05 91.78 138.55C91.8 138.54 91.81 138.52 91.83 138.51C91.84 138.49 91.86 138.47 91.87 138.45C92.62 137.42 93.47 136.55 94.28 135.71L94.78 135.19C96.16 133.73 97.59 132.27 99.02 130.8L99.77 130.01C101.78 127.9 103.68 125.91 105.52 123.74C106.85 122.16 113.02 112.41 116.48 106.47C115.8 104.52 114.18 102.25 109.41 101.39L108.39 101.3H108.05C107.28 101.3 106.5 101.35 105.66 101.39C105 101.43 104.35 101.47 103.7 101.48C103.18 101.49 102.58 101.6 101.95 101.72C101.21 101.86 100.36 102.01 99.48 102.04C97.89 102.04 96.65 101.63 95.72 100.83C94.89 100.15 94.27 99.02 94.1 97.83C93.96 97.02 93.99 96.08 94.18 94.94L94.24 94.53L93.98 94.36C93.83 94.26 93.7 94.15 93.58 94.02L93.48 93.92C92.56 93.03 92.47 91.58 93.26 90.58L93.38 90.43L92.87 90.08C92.79 90.02 92.71 89.96 92.63 89.89C92.44 89.75 92.29 89.63 92.15 89.49C92.13 89.47 92.08 89.42 92.07 89.41C91.49 88.83 91.23 88 91.38 87.2C91.46 86.74 91.62 86.24 91.74 85.87L91.79 85.7C91.81 85.58 91.84 85.46 91.87 85.35V85.31C91.87 85.31 91.87 85.24 91.86 85.2C91.07 84.89 90.21 84.34 89.71 83.34C88.76 81.43 89.77 79.62 90.84 77.7C91.74 76.08 92.76 74.25 92.96 72.14C93.06 70.95 92.7 69.84 92.14 68.3C91.68 67.16 91.56 65.92 91.81 64.8C91.82 64.75 91.88 64.55 91.88 64.55C91.96 64.27 92.06 63.92 92.22 63.56L92.33 63.28L92.24 62.98C91.86 61.82 91.41 60.22 91.31 58.45C91.15 55.35 92.31 52.55 93.3 50.75C94.05 49.35 94.79 48.27 95.63 47.35C96.52 46.32 97.59 45.49 98.52 44.79C98.55 44.77 99.16 44.35 99.16 44.35C99.71 43.96 100.28 43.57 100.91 43.19L101.03 43.12C101.16 42.97 101.3 42.84 101.47 42.73C101.83 42.48 102.14 42.26 102.46 42.08C103.24 41.63 104.06 41.22 104.79 40.85C106.33 40.12 107.89 39.48 109.46 38.93C112.3 38 115 37.38 117.54 37.07L117.84 36.98C118.91 36.68 119.92 36.39 120.9 36.21C121.88 36 123 35.88 124.16 35.88C129.57 35.88 134.68 38.31 137.51 40.8C137.63 40.86 138.13 41.11 138.26 41.17C138.34 41.17 138.41 41.17 138.49 41.17C141.9 41.17 145.17 43.82 148.23 49.06C148.72 49.74 149.27 50.51 149.71 51.4C151.03 53.8 151.94 56.69 152.38 59.88C152.76 62.44 152.83 65.2 152.59 68.81C152.47 70.35 152.36 71.81 152.21 73.31C152.14 74.18 151.98 75.15 151.75 76.16V76.21L151.74 76.28C151.74 78.17 151.7 80.09 151.67 81.99V82.31C151.64 82.98 151.62 83.61 151.59 84.23C151.57 84.76 151.54 85.3 151.53 85.84C153.92 94.05 157.3 98.75 160.82 98.75C163.87 98.75 166.42 95.45 166.58 94.36C166.38 93.12 167.14 91.92 168.36 91.57C168.59 91.5 168.82 91.47 169.05 91.47C170.08 91.47 171.04 92.11 171.4 93.12C173.35 98.55 172.73 105.72 165.11 109.53C164.66 109.75 164.2 109.94 163.73 110.1C164.77 110.46 165.44 111.46 165.4 112.55C169.05 118.61 165.26 125.13 162.45 129.97C161.53 131.55 160.66 133.05 160.22 134.22C158.7 138.44 159.95 141.35 160 141.47C160.39 142.36 160.24 143.42 159.6 144.15C159.11 144.7 158.42 145.01 157.71 145.01C157.48 145.01 157.25 144.98 157.02 144.91C156.82 144.85 156.62 144.79 156.43 144.72C156.35 145.28 156.15 146.78 156.15 146.81L156.12 146.95C156.04 147.37 155.96 147.85 155.82 148.32C155.81 148.36 155.73 148.58 155.73 148.58L156.14 149.68C156.3 150.1 156.47 150.52 156.64 150.93C156.84 151.41 157.04 151.89 157.22 152.37C157.34 152.68 157.47 152.98 157.59 153.28C157.7 153.54 157.81 153.79 157.91 154.04L158.48 155.37L158.79 154.11C158.87 153.7 158.98 153.24 159.12 152.7C159.87 149.47 160.67 146.03 161.54 142.64C161.85 141.42 162.51 139.77 163.36 137.68C164.4 135.11 165.69 131.92 166.45 129.01C166.7 128.04 166.64 126.83 166.58 125.66C166.51 124.18 166.44 122.79 167 121.56L167.13 121.29C167.85 119.77 168.74 117.87 170.25 116.61C171.33 115.66 172.74 115.05 174.51 114.75C174.55 114.75 174.59 114.74 174.62 114.73C175.26 114.65 175.95 114.58 176.68 114.58C177.41 114.58 177.98 114.65 178.54 114.78L178.94 114.88L179.08 114.56C179.23 114.15 179.38 113.78 179.53 113.4C179.54 113.37 179.69 113.05 179.69 113.05C180.2 111.89 180.73 110.78 181.46 110C181.89 109.52 182.73 108.88 184.06 108.88C184.3 108.88 184.55 108.9 184.81 108.94C185.23 108.99 185.74 109.16 186.27 109.42C186.48 109.5 186.63 109.58 186.72 109.63C186.97 109.75 187.15 109.89 187.34 110.08L187.53 110.27L187.83 110.12C188.41 109.83 189.05 109.7 189.5 109.64C189.61 109.62 189.73 109.62 189.84 109.62C190.76 109.62 191.53 109.83 192.13 110.23C193.02 110.85 193.6 111.51 193.95 112.28L194.04 112.48C194.18 112.78 194.36 113.19 194.47 113.64C194.47 113.68 194.6 114.26 194.6 114.26L195.08 114.16C195.25 114.12 195.42 114.11 195.6 114.11C195.82 114.11 196.17 114.11 196.58 114.23C196.58 114.23 196.69 114.25 196.73 114.26C196.73 114.26 196.89 114.26 196.95 114.26C197.16 114.28 197.37 114.28 197.58 114.29C197.86 114.3 198.14 114.31 198.41 114.33C201 114.5 203.4 114.88 205.71 115.49C206.98 115.82 208.18 116.24 209.35 116.65L209.72 116.78C209.82 116.82 209.92 116.86 210.01 116.9C210.12 116.96 210.24 116.99 210.35 117.02C210.41 117.04 210.47 117.06 210.53 117.09L210.78 117.19C210.78 117.19 211.05 116.92 211.11 116.87C211.17 116.81 211.22 116.74 211.28 116.69C212.09 115.92 212.8 115.24 213.52 114.52C213.58 114.46 213.65 114.4 213.72 114.34C213.76 114.31 213.78 114.29 213.83 114.23C214.31 113.63 215.03 113.3 215.77 113.3C216 113.3 216.23 113.33 216.46 113.4L218.14 113.89C218.33 113.95 218.51 114.02 218.69 114.12L218.92 113.96L220.71 112.73C221.19 112.32 221.82 112.08 222.44 112.08C222.63 112.08 222.81 112.1 222.99 112.15L223.12 112.18C223.69 112.32 224.26 112.46 224.79 112.61C224.82 112.61 224.9 112.64 224.92 112.65C225.73 112.9 226.54 113.14 227.35 113.35C228.02 113.52 228.77 113.64 229.57 113.77C230.01 113.84 230.44 113.91 230.87 113.99C233.24 114.44 235.62 114.92 237.98 115.4L241.05 116.02C244.06 116.65 247.04 117.31 250.02 117.97C251.5 118.3 252.99 118.62 254.47 118.95C255.6 119.2 256.41 120.18 256.44 121.33C256.47 122.37 256.48 123.42 256.48 124.47C256.48 170.78 231.25 213.44 190.64 235.8C190.27 236.01 189.85 236.11 189.43 236.11C189.1 236.11 188.77 236.05 188.46 235.91C185.61 234.71 182.88 233.13 180.54 231.74C180.1 231.48 179.63 231.21 179.16 230.93C178.22 230.38 177.28 229.83 176.34 229.31C175.69 228.96 175.02 228.63 174.34 228.29C173.64 227.95 172.94 227.6 172.25 227.23C171.81 227.03 171.35 226.73 170.97 226.42L170.15 225.68C169.78 225.35 169.52 224.91 169.4 224.43L169.29 223.96C169.26 223.84 169.24 223.72 169.23 223.59C169.15 222.8 169.07 222.01 169.03 221.21C168.94 220.01 168.92 218.76 168.9 217.56L168.88 216.43C168.85 215.31 168.84 214.19 168.82 213.08C168.79 210.9 168.75 208.65 168.65 206.46C168.46 201.58 168.24 196.73 168.02 191.87L167.95 190.53L167.16 191.48C166.01 192.83 164.76 193.88 163.41 194.62C162.2 195.26 160.93 195.83 159.59 195.83C159.29 195.83 158.49 195.83 157.67 195.21C157.62 195.17 157.51 195.08 157.51 195.08C157.12 195.06 156.74 194.95 156.4 194.75C155.14 194.03 154.11 193 153.21 192.1L153.03 191.92C152.06 190.95 151.07 189.83 150 188.5C148.04 186.08 146.26 183.61 144.54 180.96C143.63 179.53 142.78 178.07 141.93 176.48L141.34 175.38L141.04 176.46C140.69 177.74 140.33 179.12 140.27 180.47C140.19 182.11 140.16 183.54 140.2 184.85C140.31 187.93 140.82 190.62 141.8 193.29C142.2 194.46 142.71 195.54 143.24 196.68L143.63 197.53C144.18 198.66 144.74 199.87 145.29 201.06L145.8 202.16C146.55 203.78 147.33 205.45 148 207.17L148.2 207.67C148.45 208.29 148.71 208.93 148.94 209.61C148.96 209.66 149.04 209.96 149.05 209.99C149.05 209.99 149.15 210.22 149.19 210.31C149.84 211.65 150.53 212.94 151.26 214.3C151.54 214.83 152.43 216.48 152.43 216.48C153.75 218.94 155.11 221.49 156.32 224.07C157.65 226.99 158.79 230.08 159.74 233.28C160.86 236.89 161.76 240.5 162.75 244.51C163.08 245.84 162.27 247.19 160.94 247.53C150.7 250.14 140.12 251.46 129.47 251.46L129.51 251.52ZM179.61 153.31L180.3 152.97L180.92 152.68C181.3 152.5 181.7 152.31 182.09 152.13C183.02 151.67 183.95 151.22 184.89 150.76L186.53 149.97V149.82C186.55 149.73 186.57 149.64 186.58 149.55C186.59 149.43 186.61 149.3 186.64 149.19L186.68 149.02C186.64 148.43 186.81 147.84 187.18 147.36L187.49 146.94C187.53 146.89 187.57 146.84 187.61 146.79C188.16 146.17 188.74 145.48 189.32 144.76C189.6 144.43 189.82 144.16 190.03 143.9C190.28 143.59 190.54 143.27 190.8 142.97L191.11 142.6L190.54 142.26C190.42 142.19 190.22 142.08 190.03 141.96C189.89 141.87 189.75 141.79 189.61 141.71C189.55 141.68 189.49 141.64 189.43 141.6C188.28 140.83 187.26 140.08 186.33 139.3C184.99 138.26 183.71 137.03 182.44 135.53L182.22 135.27L181.73 135.36L181.62 135.53C180.97 136.53 180.5 137.61 180.13 138.93C179.44 141.31 179.17 143.87 179.25 147.25C179.27 148.07 179.33 148.89 179.39 149.71C179.43 150.31 179.48 150.91 179.51 151.52C179.51 151.56 179.51 151.61 179.51 151.65C179.51 151.77 179.51 151.9 179.52 152.02C179.52 152.2 179.54 152.38 179.54 152.57L179.59 153.34L179.61 153.31ZM45.81 142.1C47.85 142.82 49.86 143.49 51.84 144.11L52.2 144.23L52.33 143.99C52.36 143.93 52.39 143.87 52.42 143.82C53.44 141.99 54.09 140.52 54.53 139.04L54.94 137.51C54.96 137.39 54.99 137.25 55.01 137.11C55.03 136.99 55.06 136.85 55.1 136.72C55.1 136.61 55.1 136.5 55.1 136.38C55.18 135.58 55.19 135.05 55.14 134.53L55.04 133.41C55.03 133.34 55.01 133.26 55 133.17L54.92 132.77L54.43 132.81C53.74 132.88 53.05 132.98 52.39 133.11L52.15 133.16L52.1 133.38C51.62 135.42 50.47 137.19 48.69 138.7C48.53 138.83 48.36 138.95 48.18 139.04C47.1 140.05 45.8 140.9 44.3 141.58L45.8 142.09L45.81 142.1ZM34.98 137.26C35.04 137.26 35.11 137.26 35.17 137.27C35.27 137.28 35.38 137.29 35.49 137.29C35.61 137.29 35.73 137.29 35.86 137.27C35.93 137.27 36.01 137.26 36.08 137.26C36.55 137.26 37.06 137.23 37.53 137.2C37.65 137.18 38.01 137.15 38.01 137.15C38.15 137.13 38.29 137.12 38.43 137.12C38.54 137.08 38.65 137.05 38.76 137.02C39.28 136.91 39.86 136.74 40.54 136.48C40.82 136.38 41.11 136.33 41.4 136.33C41.45 136.33 41.49 136.33 41.54 136.33C42.42 135.95 43.19 135.49 43.82 134.97L41.97 134.72C41.33 134.63 40.7 134.48 39.99 134.23C39.67 134.14 39.37 133.99 39.11 133.79C38.68 133.71 38.35 133.53 38.15 133.42C38.1 133.39 37.99 133.33 37.94 133.3L37.62 133.1L37.41 133.32C36.74 133.99 36.14 134.65 35.51 135.35C35.18 135.71 34.85 136.08 34.52 136.43L33.8 137.22L34.96 137.25L34.98 137.26ZM195.93 131.07C196.55 131.7 197.14 132.37 197.68 133.08L198.06 133.57L198.39 133.12C198.46 133.02 198.55 132.92 198.63 132.84C198.67 132.77 198.75 132.67 198.8 132.6C200.82 129.84 202.8 127.08 204.77 124.31L205.89 122.74L206.33 122.14L204.57 121.74C204.06 121.63 203.54 121.51 203.02 121.38C202.37 121.22 201.72 121.06 201.04 120.94C201.01 120.94 200.48 120.82 200.48 120.82V121.31C200.47 121.52 200.47 121.9 200.4 122.31C200.07 124.77 198.53 127.04 197.06 128.92C196.87 129.16 196.67 129.41 196.47 129.66C196.28 129.89 196.09 130.13 195.91 130.36C195.88 130.39 195.6 130.73 195.6 130.73L195.92 131.07H195.93ZM29.9 129.79C29.94 130.18 29.94 130.54 29.94 130.85L29.98 132.08L30.8 131.19C31.76 130.12 32.92 129.02 34.22 127.93L34.34 127.83C34.34 127.83 34.33 127.62 34.33 127.57C34.33 126.77 34.43 125.91 34.65 124.94C34.83 124.09 35.06 123.25 35.28 122.43C35.49 121.65 35.69 120.91 35.84 120.18L35.92 119.79L35.62 119.64C35.62 119.64 35.53 119.6 35.48 119.58C35.37 119.54 35.27 119.5 35.17 119.46C34.38 119.07 33.57 118.72 32.76 118.36C32.25 118.14 31.75 117.91 31.25 117.69L31.01 117.58C30.85 117.5 30.69 117.43 30.52 117.37C30.44 117.34 30.36 117.31 30.28 117.28L29.69 117.01V117.62C29.7 118.29 29.69 118.91 29.73 119.5C29.73 119.54 29.73 119.58 29.73 119.62C29.77 123.02 29.81 126.41 29.88 129.81L29.9 129.79Z" fill="#FF78D2"/>
<path d="M124.19 38.41C128.78 38.41 133.59 40.54 136.13 42.93C136.69 43.19 137.25 43.49 137.85 43.75C138.07 43.71 138.3 43.69 138.52 43.69C141.54 43.69 144.24 47.13 146.16 50.44C146.65 51.11 147.13 51.79 147.51 52.54C148.82 54.94 149.57 57.55 149.94 60.25C150.35 63.02 150.31 65.86 150.13 68.67C150.02 70.13 149.91 71.59 149.76 73.09C149.69 73.95 149.54 74.81 149.35 75.63L149.31 75.78C149.27 75.93 149.27 76 149.27 76.15V76.3C149.27 78.28 149.23 80.3 149.19 82.29C149.15 83.6 149.08 84.87 149.04 86.18C152.33 97.77 156.9 101.27 160.84 101.27C165.64 101.27 169.51 96.08 169.07 93.99C169.73 95.82 171.87 103.39 164.01 107.32C162.78 107.94 161.62 108.12 160.62 108.12C159.14 108.12 158 107.72 157.46 107.72C157.32 107.72 157.22 107.75 157.17 107.81C156.76 108.22 159.79 109.87 161.89 112.04C162.23 112.23 162.56 112.38 162.94 112.49C162.72 112.49 162.49 112.49 162.27 112.45C162.42 112.64 162.61 112.82 162.72 113.01C167.88 119.78 159.91 128.05 157.93 133.36C155.99 138.75 157.78 142.53 157.78 142.53C156.13 142.04 155.12 141.33 154.56 140.47C154.49 141.07 154.37 141.63 154.3 142.19C154.11 143.61 153.93 145 153.74 146.38C153.66 146.79 153.59 147.24 153.48 147.61L153.29 148.13C153.18 148.47 153.18 148.8 153.33 149.18L153.52 149.67C153.63 149.97 153.74 150.27 153.86 150.57C154.2 151.47 154.61 152.37 154.94 153.26C155.17 153.86 155.43 154.42 155.65 154.98L157.41 159.06C157.66 159.63 158.22 160 158.82 160C158.85 160 158.88 160 158.91 160C159.58 159.96 160.11 159.51 160.26 158.88L161.31 154.65C161.38 154.24 161.5 153.79 161.61 153.38C162.39 150.01 163.18 146.65 164.04 143.28C164.68 140.74 167.56 134.94 168.94 129.66C169.61 127.04 168.72 124.01 169.35 122.63C169.99 121.28 170.77 119.52 171.93 118.55C172.79 117.8 173.87 117.43 175 117.24C175.54 117.18 176.15 117.11 176.76 117.11C177.2 117.11 177.64 117.14 178.03 117.24L179.27 117.54C179.4 117.57 179.53 117.59 179.65 117.59C180.25 117.59 180.77 117.23 180.99 116.64L181.48 115.52C181.63 115.11 181.78 114.73 181.93 114.36C182.27 113.61 182.79 112.34 183.35 111.74C183.57 111.49 183.83 111.41 184.12 111.41C184.23 111.41 184.35 111.42 184.47 111.44C184.77 111.48 185.11 111.63 185.37 111.78C185.45 111.78 185.56 111.86 185.63 111.89L186.34 112.6C186.64 112.88 187.02 113.03 187.4 113.03C187.63 113.03 187.87 112.98 188.09 112.86L189.03 112.37C189.25 112.26 189.63 112.18 189.89 112.15C190.15 112.15 190.56 112.19 190.79 112.34C191.16 112.6 191.54 112.94 191.73 113.35C191.84 113.61 192.03 113.99 192.1 114.29L192.4 115.75C192.47 116.16 192.7 116.5 193.07 116.72C193.32 116.89 193.62 116.97 193.92 116.97C194.02 116.97 194.12 116.97 194.23 116.94L195.65 116.64H195.72C195.83 116.64 195.91 116.64 195.98 116.68L196.17 116.72C196.32 116.79 196.47 116.79 196.62 116.79H196.81C197.3 116.83 197.78 116.83 198.27 116.87C200.59 117.02 202.87 117.36 205.12 117.95C206.43 118.29 207.66 118.74 208.94 119.18C209.16 119.29 209.39 119.37 209.61 119.44L210.51 119.81C210.7 119.88 210.89 119.92 211.08 119.92C211.46 119.92 211.82 119.77 212.12 119.47L212.76 118.83C212.87 118.72 212.98 118.64 213.06 118.53C213.85 117.78 214.59 117.07 215.34 116.32C215.53 116.17 215.68 116.02 215.83 115.83L217.51 116.32L217.92 116.58C218.19 116.76 218.48 116.85 218.77 116.85C219.07 116.85 219.37 116.76 219.64 116.58L220.43 116.02L222.34 114.71C222.34 114.71 222.42 114.64 222.45 114.6C223.05 114.75 223.65 114.9 224.21 115.05C225.07 115.31 225.93 115.57 226.79 115.8C227.99 116.1 229.26 116.25 230.49 116.47C233.86 117.11 237.26 117.82 240.63 118.49C245.1 119.43 249.55 120.44 254.01 121.41C254.03 122.43 254.05 123.46 254.05 124.49C254.05 171.52 227.98 212.45 189.5 233.63C186.87 232.53 184.35 231.08 181.89 229.62C180.47 228.8 179.05 227.94 177.63 227.15C176.25 226.4 174.82 225.77 173.44 225.02C173.18 224.91 172.88 224.72 172.65 224.53L171.9 223.86C171.86 223.71 171.82 223.52 171.79 223.37C171.72 222.62 171.64 221.87 171.6 221.12C171.49 219.55 171.49 217.98 171.45 216.41C171.38 213.04 171.38 209.71 171.22 206.38C171.03 201.52 170.81 196.65 170.58 191.79L170.39 188.01C170.35 187.37 169.94 186.85 169.34 186.63C169.17 186.57 168.99 186.54 168.82 186.54C168.39 186.54 167.99 186.73 167.69 187.05L165.29 189.93C164.43 190.94 163.42 191.84 162.26 192.47C161.55 192.84 160.5 193.37 159.64 193.37C159.49 193.37 159.38 193.37 159.23 193.26L158.85 192.92C158.55 192.73 158.25 192.62 157.92 192.62H157.69C156.64 192.02 155.71 191.05 154.85 190.19C153.84 189.18 152.91 188.1 152.01 186.97C150.1 184.61 148.34 182.18 146.7 179.64C145.8 178.22 144.98 176.8 144.19 175.34L142.47 172.12C142.2 171.61 141.68 171.29 141.14 171.29C141.09 171.29 141.03 171.29 140.97 171.3C140.33 171.34 139.85 171.75 139.66 172.35L138.69 175.83C138.28 177.33 137.91 178.82 137.83 180.39C137.75 181.89 137.72 183.42 137.75 184.95C137.86 188.17 138.39 191.16 139.51 194.19C140.03 195.72 140.75 197.15 141.42 198.6C142.17 200.13 142.88 201.71 143.59 203.24C144.34 204.85 145.09 206.46 145.72 208.1C146.02 208.85 146.36 209.63 146.62 210.42C146.66 210.57 146.7 210.68 146.73 210.83C146.8 211.02 146.88 211.17 146.95 211.35C147.89 213.3 148.93 215.17 149.94 217.07C151.36 219.73 152.82 222.42 154.09 225.15C155.4 228.03 156.49 230.99 157.38 234.02C158.52 237.68 159.44 241.41 160.36 245.13C150.49 247.65 140.16 248.98 129.51 248.98C113.86 248.98 98.89 246.08 85.09 240.81C85.23 240.61 85.37 240.42 85.5 240.22C86.4 238.87 87.26 237.53 88.08 236.1C88.19 235.91 88.3 235.69 88.42 235.5C89.17 234.56 89.92 233.63 90.63 232.66C92.17 230.64 93.51 228.47 94.56 226.15L94.64 225.93C94.72 225.74 94.75 225.59 94.79 225.41V225.15C94.86 223.77 95.05 222.38 95.24 221.03C95.61 217.92 96.03 214.86 96.51 211.79C97.03 208.72 97.56 205.65 98.19 202.62C98.34 201.87 98.49 201.12 98.68 200.34L98.75 199.97C98.79 199.82 98.79 199.67 98.79 199.52C98.83 199.33 98.87 199.15 98.9 199C99.39 197.05 99.65 193.2 99.69 189.01C98.91 188.13 97.77 187.53 96.57 187.53C96.44 187.53 96.31 187.53 96.18 187.55C95.87 187.59 95.55 187.6 95.23 187.6C94.58 187.6 93.93 187.55 93.3 187.55C92.93 187.53 92.55 187.51 92.17 187.51C91.89 187.51 91.62 187.52 91.35 187.55C91.09 187.48 90.83 187.36 90.56 187.25C89.1 186.58 87.98 185.19 87.16 183.88C86.49 182.76 85.92 181.6 85.33 180.44C84.58 178.91 83.8 177.37 82.97 175.84C81.4 172.77 79.83 169.74 78.26 166.71C76.72 163.64 75.19 160.57 73.84 157.43C73.09 155.78 72.38 154.1 71.67 152.45V152.41L71.3 151.51L70.93 150.65C70.93 150.65 70.93 150.61 70.89 150.61C70.59 149.86 70.25 149.11 69.92 148.33C68.65 145.37 67.3 142.46 65.84 139.57C65.2 138.26 64.49 136.99 63.82 135.72L61.69 131.83C61.4 131.31 60.89 131.02 60.35 131.02C60.26 131.02 60.17 131.02 60.09 131.04C59.42 131.11 58.97 131.64 58.85 132.27L58.29 136.61C58.11 137.77 57.88 138.85 57.58 139.98C57.24 141.1 56.87 142.23 56.42 143.35C56.31 143.69 56.16 144.06 56.01 144.4L55.3 145.97C55.11 146.38 55.11 146.79 55.3 147.24C55.49 147.65 55.82 147.95 56.27 148.06L57.95 148.55C58.7 148.77 59.41 148.96 60.16 149.19C61.06 149.45 61.96 149.71 62.89 149.94C63.04 149.98 63.19 150.05 63.38 150.09C63.45 150.24 63.53 150.39 63.68 150.5L64.02 150.84C64.43 151.21 64.8 151.78 65.11 152.26C65.33 152.63 65.52 153.01 65.71 153.38L65.86 153.75L66.01 154.09C66.2 154.54 66.31 154.95 66.42 155.4C66.72 156.6 66.94 157.87 66.94 159.1C66.94 159.74 66.87 160.33 66.79 160.93C66.75 161 66.72 161.08 66.68 161.15L66.64 161.26C66.6 161.33 66.6 161.45 66.57 161.52V161.67C66.46 162.34 66.31 163.05 66.16 163.73C65.64 165.86 65 167.92 64.33 170.02C62.23 176.53 60.29 183.08 58.19 189.59C57.18 192.81 56.09 196.02 54.93 199.21C54.29 201.01 53.58 202.8 52.98 204.6C51.82 208.01 50.66 211.45 48.98 214.59C48.43 215.63 47.74 216.77 46.87 217.56C21.18 194.8 5.00001 161.54 5.00001 124.51C5.00001 114.53 6.18001 104.82 8.40001 95.52C10.03 96.3 11.67 97.06 13.29 97.86C14.41 98.42 15.53 99.02 16.7 99.51C17.52 99.85 18.35 100.18 19.17 100.48C19.69 100.67 20.22 100.89 20.74 101.12C20.74 101.16 20.78 101.23 20.81 101.31L22.16 104.6C22.38 105.2 22.94 105.57 23.58 105.57H23.95L25.56 106.28C25.6 106.47 25.6 106.65 25.63 106.84C25.85 107.93 26.04 108.97 26.27 110.02C26.27 110.17 26.31 110.32 26.34 110.43L26.49 111.37C26.6 111.97 27.05 112.45 27.65 112.6L28.55 112.86C28.78 112.9 29 112.97 29.26 113.05C30.53 113.42 31.8 113.84 33.04 114.32C34.72 114.99 36.33 115.82 37.91 116.75L38.66 117.2C38.92 117.35 39.19 117.42 39.46 117.42C39.73 117.42 39.99 117.35 40.23 117.2L40.98 116.75C40.98 116.75 41.02 116.75 41.05 116.71C41.65 116.37 42.29 116.07 42.92 115.85C43.68 115.63 44.5 115.46 45.3 115.46C45.44 115.46 45.58 115.46 45.72 115.48C46.51 115.52 48.15 116 48.56 116.72L49.05 117.62C49.35 118.16 49.87 118.45 50.43 118.45C50.49 118.45 50.56 118.45 50.62 118.44L51.67 118.29C52.08 118.21 52.53 118.18 52.98 118.14C53.65 118.03 54.33 117.95 55 117.88C55.23 117.86 55.46 117.86 55.7 117.86C56.54 117.86 57.4 117.95 58.22 118.07C59.15 118.22 60.13 118.48 60.95 118.93C61.25 119.12 61.59 119.3 61.81 119.53C61.81 119.53 61.81 119.57 61.85 119.57L62.07 119.87C62.22 120.06 62.41 120.21 62.63 120.32L62.97 120.51C63.79 120.88 64.54 121.56 65.14 122.23C66.52 123.8 67.61 125.64 68.54 127.47C69.06 128.48 69.55 129.53 70 130.58C70.11 130.84 70.26 131.1 70.37 131.4V131.44C70.37 131.89 70.56 132.26 70.89 132.56C70.97 132.71 71.04 132.9 71.11 133.08C72.53 136.07 74.25 138.92 76.05 141.69C77.85 144.46 79.72 147.15 81.66 149.81C83.53 152.43 85.33 155.09 87.16 157.71C88.84 160.07 90.83 162.24 93.07 164C93.37 164.22 93.63 164.45 93.93 164.67C93.56 164.15 93.18 163.66 92.81 163.14C91.31 161.08 89.93 158.69 89.33 156.22C88.69 153.75 88.66 151.13 89.03 148.66C89.4 146.49 90.08 143.95 91.54 142.26C92.1 141.62 92.74 141.06 93.37 140.54L93.52 140.43C93.63 140.36 93.71 140.28 93.78 140.17L93.89 139.98C94.68 138.89 95.65 137.96 96.58 136.99C97.96 135.53 99.39 134.07 100.81 132.61C103.05 130.25 105.3 127.93 107.43 125.43C109 123.56 115.89 112.63 119.18 106.87C118.36 103.39 115.96 100.06 109.75 98.98L108.51 98.87H108.06C106.6 98.87 105.1 99.02 103.65 99.06C102.23 99.1 100.81 99.58 99.42 99.62C98.71 99.62 97.92 99.51 97.36 99.02C96.95 98.68 96.65 98.08 96.58 97.52C96.47 96.88 96.54 96.1 96.66 95.42L96.81 94.45C96.89 93.81 96.66 93.22 96.17 92.88L95.38 92.36C95.38 92.36 95.27 92.25 95.23 92.21L95.94 91.31C96.2 90.94 96.31 90.52 96.24 90.08C96.17 89.63 95.94 89.26 95.6 89L94.29 88.1C94.18 87.99 94.03 87.91 93.92 87.8C93.92 87.76 93.88 87.76 93.84 87.72C93.92 87.31 94.14 86.67 94.21 86.41C94.25 86.3 94.25 86.19 94.28 86.07L94.35 85.77C94.39 85.54 94.39 85.36 94.39 85.13L94.31 84.83C94.23 84.19 94.16 83.78 93.82 83.18C88.77 82.47 94.83 78.69 95.43 72.44C95.58 70.64 95.06 69.11 94.46 67.46C94.2 66.82 94.08 66.08 94.23 65.4C94.31 65.14 94.38 64.84 94.49 64.61L94.71 64.05C94.9 63.68 94.9 63.26 94.78 62.89L94.59 62.29C94.18 61.02 93.84 59.71 93.77 58.36C93.66 56.11 94.44 53.83 95.45 52C96.01 50.95 96.65 49.94 97.43 49.08C98.18 48.22 99.08 47.51 99.97 46.84C100.68 46.35 101.39 45.83 102.14 45.38L102.4 45.23C102.59 45.12 102.74 44.97 102.85 44.82C103.11 44.63 103.38 44.45 103.64 44.3C104.35 43.89 105.1 43.51 105.85 43.14C107.27 42.47 108.73 41.87 110.23 41.34C112.74 40.52 115.36 39.88 117.97 39.58C119.17 39.24 120.29 38.91 121.3 38.72C122.21 38.52 123.15 38.43 124.1 38.43M29.08 136.05C29.49 136.05 29.88 135.88 30.17 135.57L32.64 132.88C33.61 131.79 34.7 130.78 35.82 129.85L36.34 129.4C36.68 129.1 36.86 128.73 36.86 128.24L36.82 127.57C36.82 126.86 36.93 126.15 37.08 125.48C37.42 123.87 37.94 122.3 38.28 120.69L38.5 119.57C38.65 118.9 38.31 118.19 37.68 117.89L36.63 117.37C36.52 117.33 36.41 117.26 36.26 117.22C34.95 116.58 33.6 116.02 32.29 115.42C31.95 115.27 31.65 115.12 31.32 115.01L29.26 114.07C29.05 113.97 28.84 113.93 28.64 113.93C28.37 113.93 28.1 114.02 27.84 114.19C27.39 114.49 27.17 114.94 27.17 115.46L27.21 117.67C27.21 118.34 27.21 119.02 27.25 119.65C27.29 123.09 27.33 126.53 27.4 129.98C27.44 130.28 27.44 130.58 27.44 130.88L27.55 134.55C27.55 135.19 27.92 135.71 28.52 135.97C28.71 136.04 28.89 136.07 29.08 136.07M198.09 136.73C198.61 136.73 199.02 136.54 199.29 136.13L200.41 134.6C200.56 134.45 200.71 134.26 200.82 134.08C202.84 131.31 204.82 128.54 206.81 125.77C207.18 125.25 207.56 124.72 207.93 124.2L209.24 122.4C209.54 121.95 209.61 121.47 209.39 120.98C209.2 120.46 208.83 120.12 208.3 120.01L206.09 119.52C205.75 119.45 205.45 119.37 205.12 119.3C203.89 119.04 202.73 118.7 201.49 118.48L199.81 118.11C199.69 118.08 199.58 118.07 199.47 118.07C199.15 118.07 198.86 118.18 198.58 118.38C198.24 118.68 198.05 119.05 198.02 119.54L197.98 121.26C197.98 121.48 197.98 121.71 197.95 121.93C197.69 123.91 196.3 125.86 195.11 127.39C194.73 127.88 194.32 128.36 193.95 128.85L193.13 129.82C192.64 130.42 192.68 131.28 193.24 131.84L194.14 132.81C194.7 133.37 195.23 133.97 195.71 134.61L196.91 136.14C197.21 136.55 197.62 136.74 198.11 136.74M47.08 136.8L47 136.69C45.65 138.15 43.63 139.42 40.68 140.25C40.12 140.51 39.78 141.03 39.82 141.67C39.86 142.31 40.27 142.83 40.87 143.05L44.35 144.25C44.57 144.32 44.8 144.4 45.02 144.48C47.04 145.19 49.06 145.86 51.08 146.5L52.2 146.87C52.36 146.92 52.52 146.95 52.69 146.95C53.21 146.95 53.71 146.68 53.96 146.2L54.52 145.19C54.52 145.19 54.59 145.08 54.59 145.04C55.53 143.36 56.35 141.63 56.91 139.76C57.06 139.2 57.21 138.64 57.36 138.08C57.4 137.89 57.43 137.67 57.47 137.44C57.58 137.25 57.62 137.03 57.62 136.8L57.58 136.61C57.65 135.82 57.69 135.08 57.62 134.29C57.58 133.88 57.55 133.5 57.51 133.09C57.51 133.02 57.47 132.94 57.47 132.83L57.21 131.48C57.07 130.74 56.43 130.2 55.7 130.2C55.65 130.2 55.61 130.2 55.56 130.2L54.21 130.31C53.42 130.39 52.64 130.5 51.89 130.65L50.99 130.84C50.39 130.99 49.98 131.4 49.83 131.96L49.64 132.86C49.27 134.43 48.29 135.74 47.06 136.79M35.49 139.79C35.68 139.79 35.88 139.79 36.08 139.76C36.64 139.76 37.24 139.72 37.8 139.69C38.02 139.65 38.21 139.65 38.44 139.61C38.5 139.62 38.56 139.62 38.62 139.62C38.78 139.62 38.95 139.59 39.11 139.53L39.3 139.46C40.01 139.31 40.72 139.09 41.43 138.82L41.54 139.01C43.86 138.22 45.47 137.06 46.52 135.83V135.79L46.59 135.75C47 135.26 47.34 134.74 47.6 134.22C47.6 134.11 47.6 134.03 47.56 133.92C47.41 133.28 46.89 132.83 46.25 132.76L42.32 132.24C41.76 132.16 41.23 132.02 40.71 131.83H40.67L40.45 131.64C40.26 131.53 40.11 131.45 39.93 131.42L39.63 131.35C39.56 131.35 39.37 131.24 39.29 131.2L38.28 130.56C38.04 130.42 37.77 130.35 37.5 130.35C37.11 130.35 36.72 130.49 36.41 130.78L35.62 131.6C34.61 132.61 33.67 133.7 32.7 134.74L30.53 137.1C30.12 137.55 30.01 138.15 30.27 138.71C30.49 139.31 31.02 139.65 31.66 139.68L34.92 139.75C35.11 139.77 35.29 139.78 35.49 139.78M178.76 156.33C178.98 156.33 179.2 156.28 179.42 156.18L181.4 155.21C181.96 154.95 182.56 154.65 183.16 154.39C184.58 153.68 186 153.01 187.46 152.3L188.13 151.96C188.62 151.74 188.88 151.32 188.95 150.84L189.02 150.05C189.06 149.98 189.06 149.86 189.06 149.79L189.17 149.34C189.21 149.19 189.21 149 189.17 148.85C189.28 148.7 189.36 148.59 189.47 148.44C190.07 147.77 190.67 147.05 191.26 146.31C191.75 145.75 192.2 145.15 192.68 144.59L193.77 143.28C194.07 142.91 194.14 142.49 194.07 142.05C193.99 141.6 193.73 141.23 193.32 141L191.82 140.1C191.48 139.91 191.15 139.69 190.81 139.5C189.8 138.83 188.83 138.11 187.89 137.33C186.58 136.32 185.42 135.16 184.34 133.89L183.78 133.22C183.48 132.86 183.08 132.66 182.64 132.66C182.54 132.66 182.43 132.67 182.32 132.69L180.82 132.95C180.41 133.06 180.07 133.25 179.85 133.62L179.51 134.14C178.69 135.41 178.13 136.76 177.71 138.22C176.85 141.18 176.66 144.17 176.74 147.27C176.78 148.73 176.93 150.15 177 151.61C177 151.95 177.04 152.28 177.04 152.62L177.19 154.87C177.19 155.39 177.49 155.84 177.94 156.1C178.19 156.25 178.46 156.32 178.74 156.32M124.19 33.41C122.88 33.41 121.61 33.54 120.4 33.8C119.33 34 118.25 34.31 117.21 34.61L117.07 34.65C114.43 34.98 111.63 35.63 108.75 36.57C108.72 36.58 108.69 36.59 108.66 36.6C107.01 37.18 105.37 37.85 103.79 38.6C103.76 38.61 103.73 38.63 103.7 38.65C102.94 39.03 102.09 39.46 101.22 39.96C100.78 40.21 100.38 40.49 100.07 40.72C99.88 40.86 99.69 41.01 99.51 41.18C98.87 41.57 98.28 41.99 97.76 42.35C97.58 42.47 97.41 42.6 97.23 42.72C97.17 42.76 97.11 42.8 97.06 42.84C95.97 43.66 94.81 44.58 93.78 45.76C92.82 46.82 91.98 48.05 91.13 49.62C89.98 51.71 88.67 54.96 88.85 58.61C88.95 60.4 89.34 61.98 89.72 63.23C89.63 63.5 89.56 63.74 89.51 63.93L89.48 64.02C89.45 64.12 89.43 64.22 89.41 64.31C89.06 65.89 89.22 67.64 89.85 69.23C90.3 70.46 90.56 71.27 90.51 71.98C90.35 73.56 89.47 75.13 88.7 76.52C87.55 78.58 85.98 81.4 87.52 84.49C87.9 85.25 88.41 85.9 89.04 86.43C89.01 86.55 88.99 86.67 88.97 86.79C88.68 88.41 89.19 90.06 90.36 91.22C90.07 92.75 90.5 94.39 91.62 95.59C91.52 96.57 91.54 97.44 91.67 98.25C91.94 100.04 92.84 101.69 94.17 102.8C95.56 103.98 97.33 104.58 99.45 104.58C99.5 104.58 99.54 104.58 99.59 104.58C100.67 104.55 101.61 104.38 102.45 104.22C102.99 104.12 103.49 104.03 103.82 104.02C104.49 104 105.17 103.96 105.85 103.92C106.65 103.87 107.4 103.83 108.1 103.83H108.32L109.11 103.9C111.75 104.39 113.02 105.31 113.7 106.37C110.12 112.43 104.73 120.88 103.63 122.18C101.86 124.27 99.98 126.23 98 128.31L97.24 129.11C95.92 130.47 94.42 132 92.99 133.52C92.85 133.67 92.68 133.84 92.52 134C91.73 134.81 90.84 135.73 90.02 136.82C89.37 137.36 88.57 138.07 87.81 138.93C86.39 140.57 85.35 142.68 84.65 145.36C83.08 143.18 81.64 141.07 80.27 138.95C78.89 136.83 77.14 134.02 75.72 131.05C75.63 130.82 75.52 130.57 75.39 130.3C75.32 130.17 75.25 130.04 75.17 129.91C75.14 129.81 75.11 129.71 75.07 129.62C74.92 129.23 74.77 128.91 74.67 128.7L74.61 128.58C74.09 127.36 73.54 126.21 73 125.16C71.68 122.57 70.37 120.58 68.91 118.91C67.85 117.72 66.73 116.81 65.56 116.19C65.52 116.14 65.47 116.1 65.43 116.05C65.41 116.03 65.39 116.01 65.36 115.98C64.76 115.38 64.14 115 63.74 114.75L63.62 114.68C63.54 114.63 63.45 114.58 63.36 114.53C62.13 113.86 60.67 113.38 59.02 113.12C58.99 113.12 58.97 113.12 58.94 113.11C58.15 113 56.96 112.85 55.71 112.85C55.35 112.85 54.99 112.86 54.65 112.89C54.58 112.89 54.52 112.9 54.45 112.91C53.77 112.99 53.09 113.06 52.37 113.18C52.3 113.18 52.22 113.19 52.15 113.2C50.14 110.96 46.87 110.57 46.12 110.51C45.85 110.49 45.57 110.48 45.3 110.48C44.12 110.48 42.88 110.67 41.52 111.07C41.43 111.1 41.34 111.12 41.26 111.15C40.67 111.36 40.08 111.61 39.49 111.9C37.93 111.02 36.42 110.3 34.9 109.69C33.73 109.23 32.49 108.81 31.03 108.37C30.96 108.02 30.89 107.67 30.82 107.31C30.74 106.88 30.65 106.44 30.56 106C30.54 105.82 30.51 105.59 30.46 105.32C30.15 103.72 29.07 102.37 27.57 101.71L26.1 101.06L25.43 99.41C25.43 99.41 25.42 99.38 25.41 99.36C24.94 98.11 23.98 97.07 22.7 96.52C22.18 96.29 21.52 96.01 20.83 95.77C20.14 95.52 19.39 95.21 18.6 94.89C17.88 94.59 17.11 94.2 16.3 93.79C16.04 93.66 15.77 93.52 15.51 93.39C14.35 92.82 13.19 92.27 12.04 91.72C11.54 91.48 11.04 91.25 10.54 91.01C9.86001 90.69 9.12001 90.52 8.39001 90.52C7.65001 90.52 6.92001 90.68 6.23001 91.01C4.87001 91.66 3.87001 92.89 3.52001 94.36C1.17001 104.2 -0.019989 114.35 -0.019989 124.51C-0.019989 161.47 15.84 196.77 43.5 221.34C44.45 222.18 45.63 222.6 46.82 222.6C48.01 222.6 49.24 222.16 50.19 221.29C51.65 219.96 52.64 218.28 53.34 216.98C55.18 213.54 56.41 209.93 57.6 206.44L57.67 206.25C58.01 205.22 58.39 204.21 58.79 203.14C59.06 202.4 59.34 201.66 59.6 200.92C60.73 197.82 61.85 194.51 62.91 191.13C63.95 187.9 64.98 184.58 65.97 181.37C66.96 178.16 67.99 174.84 69.04 171.6C69.82 169.18 70.44 167.13 70.97 164.97C70.97 164.94 70.99 164.9 70.99 164.87C71.08 164.49 71.15 164.14 71.22 163.81C72.06 165.56 72.92 167.29 73.77 168.98C73.78 169 73.79 169.02 73.8 169.04C75.37 172.06 76.93 175.09 78.5 178.15C78.51 178.18 78.53 178.21 78.55 178.24C79.32 179.67 80.08 181.16 80.82 182.67C80.84 182.7 80.85 182.73 80.87 182.76L81.24 183.49C81.73 184.46 82.24 185.45 82.86 186.48C82.88 186.51 82.89 186.54 82.91 186.57C84.51 189.12 86.33 190.84 88.45 191.82C88.49 191.84 88.54 191.86 88.59 191.88C88.94 192.03 89.41 192.23 89.97 192.39C90.42 192.52 90.87 192.58 91.34 192.58C91.53 192.58 91.73 192.57 91.92 192.55C91.94 192.55 92.01 192.55 92.16 192.55C92.44 192.55 92.73 192.57 93 192.58C93.1 192.58 93.19 192.58 93.29 192.58C93.54 192.58 93.79 192.59 94.04 192.6C94.22 192.6 94.41 192.61 94.59 192.62C94.46 195.31 94.24 197.05 94.05 197.82C94.01 198 93.96 198.23 93.91 198.46L93.89 198.55C93.84 198.8 93.81 199.05 93.79 199.3C93.59 200.17 93.42 200.99 93.29 201.66C92.64 204.78 92.1 207.93 91.58 210.99C91.58 211.01 91.58 211.03 91.58 211.05C91.13 213.9 90.7 216.97 90.29 220.43C90.13 221.62 89.93 223.06 89.83 224.55C89.02 226.26 87.96 227.99 86.67 229.69C86.65 229.71 86.63 229.74 86.61 229.76C85.98 230.62 85.31 231.46 84.59 232.36L84.53 232.43C84.39 232.6 84.27 232.78 84.16 232.97C84.07 233.12 83.97 233.29 83.88 233.46L83.81 233.58C83.81 233.58 83.79 233.61 83.78 233.64C83.11 234.79 82.35 236 81.39 237.44L81.2 237.71L81 237.99C80.12 239.25 79.87 240.85 80.32 242.32C80.77 243.79 81.88 244.97 83.31 245.52C98.07 251.16 113.61 254.01 129.51 254.01C140.36 254.01 151.16 252.66 161.6 250C164.26 249.32 165.87 246.63 165.22 243.96C164.23 239.93 163.32 236.29 162.17 232.59C161.19 229.29 160 226.1 158.64 223.1C157.39 220.41 156.01 217.83 154.67 215.34L154.34 214.73C154.07 214.22 153.78 213.69 153.5 213.16C152.79 211.84 152.12 210.59 151.5 209.32C151.48 209.27 151.46 209.23 151.44 209.18C151.42 209.08 151.38 208.95 151.35 208.86C151.1 208.1 150.81 207.39 150.55 206.76L150.35 206.28C149.66 204.49 148.87 202.79 148.1 201.15L147.59 200.05C147.05 198.88 146.49 197.67 145.91 196.48C145.78 196.21 145.66 195.94 145.53 195.67C145.03 194.59 144.55 193.58 144.22 192.6C144.21 192.56 144.19 192.52 144.18 192.48C143.29 190.07 142.83 187.63 142.73 184.8C142.71 184.17 142.71 183.49 142.73 182.76C144.42 185.34 146.18 187.76 148.1 190.14C149.21 191.52 150.26 192.71 151.29 193.75L151.48 193.94C152.44 194.9 153.64 196.1 155.19 196.99C155.62 197.23 156.07 197.41 156.55 197.52C157.45 198.1 158.49 198.4 159.62 198.4C161.51 198.4 163.18 197.66 164.56 196.93C164.59 196.92 164.62 196.9 164.64 196.89C165.01 196.69 165.38 196.46 165.74 196.22C165.89 199.57 166.05 203.11 166.18 206.62C166.28 208.82 166.31 210.96 166.35 213.23C166.37 214.34 166.38 215.45 166.41 216.57C166.41 216.94 166.43 217.31 166.43 217.68C166.45 218.9 166.47 220.16 166.57 221.47C166.61 222.34 166.7 223.17 166.77 223.91C166.8 224.16 166.84 224.41 166.9 224.66L166.92 224.77C166.95 224.89 166.97 225.01 167 225.12C167.24 226.08 167.76 226.95 168.5 227.62L169.25 228.29C169.3 228.34 169.35 228.38 169.4 228.42C169.93 228.86 170.54 229.25 171.16 229.54C171.88 229.93 172.59 230.27 173.27 230.61C173.95 230.94 174.59 231.26 175.2 231.59C176.05 232.06 176.95 232.59 177.9 233.15C178.37 233.43 178.84 233.7 179.31 233.98C181.72 235.41 184.53 237.04 187.51 238.29C188.13 238.55 188.79 238.68 189.45 238.68C190.28 238.68 191.11 238.47 191.86 238.06C233.27 215.26 259 171.76 259 124.54C259 123.51 258.99 122.46 258.96 121.34C258.9 119.04 257.28 117.07 255.03 116.58C253.55 116.26 252.07 115.93 250.58 115.6C247.65 114.95 244.61 114.28 241.61 113.65C240.54 113.44 239.51 113.23 238.48 113.02C236.15 112.55 233.74 112.06 231.37 111.61C230.89 111.52 230.43 111.45 229.98 111.38C229.25 111.26 228.55 111.15 227.97 111.01C227.23 110.82 226.46 110.58 225.64 110.33C225.59 110.31 225.5 110.29 225.45 110.27C224.91 110.13 224.34 109.98 223.76 109.84L223.6 109.8C223.2 109.7 222.79 109.65 222.39 109.65C221.2 109.65 220.04 110.07 219.13 110.86L218.32 111.42L217.16 111.08C216.7 110.95 216.24 110.88 215.77 110.88C214.34 110.88 212.96 111.49 212 112.59C211.91 112.67 211.83 112.74 211.75 112.83C211.23 113.35 210.71 113.85 210.17 114.36C208.96 113.93 207.7 113.49 206.31 113.13C203.9 112.49 201.35 112.08 198.57 111.9C198.27 111.88 197.98 111.87 197.68 111.85C197.5 111.85 197.32 111.84 197.14 111.82C197.11 111.82 197.09 111.82 197.06 111.82C196.82 111.76 196.59 111.72 196.39 111.7C196.36 111.63 196.33 111.57 196.31 111.51L196.26 111.39C196.26 111.39 196.23 111.33 196.22 111.3C195.69 110.13 194.81 109.11 193.6 108.26C193.57 108.24 193.55 108.22 193.52 108.2C192.5 107.51 191.26 107.16 189.83 107.16C189.6 107.16 189.37 107.18 189.14 107.21C188.7 107.27 188.28 107.36 187.89 107.47C187.76 107.4 187.55 107.29 187.28 107.18C186.57 106.83 185.86 106.61 185.14 106.51C184.77 106.45 184.41 106.42 184.05 106.42C182.32 106.42 180.74 107.11 179.59 108.37C178.62 109.43 178 110.72 177.4 112.07L177.37 112.14C177.15 112.13 176.92 112.12 176.69 112.12C175.83 112.12 175.02 112.2 174.34 112.29C174.26 112.29 174.19 112.31 174.11 112.32C172.07 112.66 170.32 113.4 168.92 114.51C168.68 113.62 168.32 112.73 167.85 111.85C167.81 111.56 167.75 111.28 167.66 111C175.37 106.28 175.82 98.12 173.74 92.31C173.01 90.28 171.1 89 169.04 89C168.59 89 168.12 89.06 167.67 89.19C165.48 89.81 164.04 91.81 164.04 94C163.58 94.83 162.09 96.28 160.81 96.28C159.46 96.28 156.56 94 154.04 85.56C154.05 85.16 154.07 84.77 154.09 84.38C154.12 83.74 154.15 83.1 154.16 82.46C154.16 82.44 154.16 82.42 154.16 82.4V82.08C154.2 80.26 154.23 78.38 154.24 76.53C154.47 75.5 154.62 74.5 154.7 73.57C154.85 72.03 154.97 70.54 155.08 69.09C155.08 69.07 155.08 69.04 155.08 69.02C155.33 65.24 155.26 62.32 154.85 59.56C154.37 56.1 153.37 52.96 151.9 50.24C151.4 49.26 150.82 48.42 150.32 47.74C146.9 41.93 143.05 38.9 138.87 38.73C135.09 35.54 129.3 33.44 124.16 33.44L124.19 33.41ZM32.3 123.96C32.29 122.95 32.27 121.92 32.26 120.86C32.51 120.97 32.77 121.09 33.01 121.2C32.96 121.39 32.91 121.58 32.86 121.77C32.67 122.48 32.47 123.2 32.3 123.97V123.96ZM49.97 140.88C50.09 140.8 50.2 140.71 50.31 140.61C50.89 140.12 51.41 139.6 51.88 139.06C51.64 139.74 51.34 140.44 50.96 141.21C50.63 141.1 50.3 140.99 49.97 140.88ZM181.89 149.44C181.83 148.64 181.78 147.89 181.76 147.15C181.69 144.05 181.92 141.72 182.54 139.62C182.57 139.52 182.59 139.43 182.62 139.34C183.32 140.02 184.04 140.65 184.78 141.22C185.58 141.89 186.44 142.54 187.37 143.19C186.82 143.88 186.28 144.52 185.75 145.12C185.66 145.22 185.58 145.32 185.5 145.43C185.41 145.54 185.34 145.64 185.27 145.75L185.19 145.86C184.64 146.59 184.31 147.44 184.22 148.32C184.08 148.39 183.95 148.45 183.82 148.52C183.18 148.83 182.54 149.14 181.9 149.45L181.89 149.44ZM61.37 144.38C61.54 143.91 61.72 143.42 61.88 142.92C62.19 143.54 62.49 144.16 62.79 144.8C62.37 144.68 61.96 144.56 61.53 144.44C61.48 144.42 61.42 144.41 61.36 144.39L61.37 144.38Z" fill="white"/>
</g>
<defs>
<clipPath id="clip0_926_2009">
<rect width="259.02" height="254.02" fill="white"/>
</clipPath>
</defs>
</svg>
